<svg id="logo" xmlns="http://www.w3.org/2000/svg" viewBox="0 0 32 32"><defs><style>.cls-1{fill:#f74c0c;}.cls-2{fill:#f2f2f2;}.cls-3{fill:#f14a0c;}</style></defs><title>logo-nerdices-geek</title><g id="favicon"><path class="cls-1" d="M16.25,1.41C7.64,1.35,1.18,7.54,1.15,15.89a14.41,14.41,0,0,0,14.57,14.7A14.91,14.91,0,0,0,30.85,15.93,14.89,14.89,0,0,0,16.25,1.41Zm1.14,21.73A3.9,3.9,0,0,1,14.67,23c-2-.82-3.55-1.59-5.88-2.79s-2.55-2.7-2.62-4.88c-.07-2.38,1.6-2.84,3.14-3.55.58-.27,1.26-.31,1.85-.57,5.5-2.43,5.48-2.42,9.71,1.63,1.86,1.79,3.8,3.49,6.11,5.6C23.33,20.24,20.41,21.8,17.39,23.14Z"/><path class="cls-2" d="M20.87,12.8C16.64,8.75,16.16,8.56,10.66,11l-.1,0c-.51.22-.73.31-1.27.56A7.85,7.85,0,0,0,6.84,13l0,0A3,3,0,0,0,6,14.94c0,.05,0,.12,0,.18s0,.13,0,.2v.25c0,1.07-.31,2.75,2.86,4.6a19,19,0,0,0,8,3.34L27,18.4C24.67,16.29,22.73,14.58,20.87,12.8Zm-5.05-1.51c1.07,1.15,2.16,2.29,3.24,3.43L16.89,16.2c-.32-.49-.73-1.07-1.22-1.74-.83-1.12-1.38-1.9-1.68-2.35ZM14.16,21.41q-1.48-3.64-3-7.28a28.94,28.94,0,0,0,2.79,1.44c.86.39,1.7.71,2.47,1l-.51.35L18,20Z"/><path class="cls-3" d="M15.82,11.34c2.2,2.36,4.44,4.69,6.69,7q-4.16,1.59-8.35,3.1c-1-2.43-2-4.86-3-7.28a28.94,28.94,0,0,0,2.79,1.44,27.48,27.48,0,0,0,3.38,1.26c-.35-.59-.9-1.38-1.62-2.37s-1.38-1.9-1.68-2.35Zm2.63,7.75.12.18,2.93-1.11c-.95-1-1.42-1.51-2.34-2.52l-.17.07c.45.52,1.09,1.3,1.88,2.36l-2.42,1"/></g></svg>