<svg id="logo" xmlns="http://www.w3.org/2000/svg" viewBox="0 0 260 260"><defs><style>.cls-1{fill:#f74c0c;}.cls-2{fill:#f2f2f2;}.cls-3{fill:#f14a0c;}</style></defs><title>logo-nerdices-geek</title><g id="logo-2" data-name="logo"><path class="cls-1" d="M132,14.82C64,14.37,13,63.25,12.79,129.11c-.22,65.26,49.39,115.33,115,116.07,65.1.72,119.54-52,119.41-115.72C247.07,68,194.06,15.23,132,14.82Zm8.95,171.54c-5.89,2.61-15.07,1.28-21.46-1.35-15.81-6.51-28-12.53-46.37-22C54.2,153.28,53,141.7,52.43,124.46c-.56-18.8,12.62-22.37,24.77-28,4.57-2.12,10-2.45,14.58-4.49,43.43-19.15,43.28-19.07,76.63,12.87,14.72,14.09,30,27.58,48.22,44.2C187.82,163.46,164.77,175.79,140.94,186.36Z"/><path class="cls-2" d="M168.41,104.72c-33.35-31.94-37.12-33.41-80.54-14.26l-.85.37c-4,1.75-5.72,2.46-10,4.45-6.68,3.11-14,5.71-19.29,11a3.91,3.91,0,0,0-.36.35c-3.37,3.34-5.8,7.95-6.59,14.92-.05.46-.09.94-.13,1.42s-.07,1.06-.1,1.61,0,1.3,0,2c0,8.44-2.41,21.69,22.59,36.32,15.13,8.85,25.6,19.11,63,26.33,0,0,51.76-25.89,80.57-40.32C198.45,132.3,183.13,118.82,168.41,104.72ZM128.58,92.83q12.71,13.61,25.6,27.07l-17.13,11.65c-2.55-3.86-5.78-8.41-9.69-13.69-6.52-8.82-10.89-15-13.25-18.55C119.9,96.72,122.8,95.43,128.58,92.83ZM115.51,172.7c-7.88-19.18-15.82-38.36-24-57.48a223.08,223.08,0,0,0,22,11.41A210,210,0,0,0,133,134.27L129,137l16.75,24.64Q130.67,167.25,115.51,172.7Z"/><path class="cls-3" d="M128.58,93.22c17.38,18.62,35.07,37,52.79,55.39q-32.72,12.6-65.86,24.48c-7.89-19.19-15.82-38.36-24-57.48a224.21,224.21,0,0,0,22,11.41,211.06,211.06,0,0,0,26.74,9.91c-2.79-4.68-7.12-10.9-12.86-18.69-6.51-8.82-10.89-15-13.26-18.54Zm20.72,61.17,1,1.4c9.25-3.45,13.86-5.19,23.09-8.73-7.43-8-11.14-11.94-18.47-19.88l-1.27.51c3.54,4.12,8.55,10.31,14.8,18.65-7.61,3.24-11.44,4.85-19.14,8"/></g></svg>