<svg id="logo" xmlns="http://www.w3.org/2000/svg" viewBox="0 0 826 265"><defs><style>.cls-1,.cls-4{fill:#f74c0c;}.cls-2{fill:#f2f2f2;}.cls-3{fill:#f14a0c;}.cls-4{font-size:72px;font-family:PacFont;}.cls-5{letter-spacing:0.02em;}</style></defs><title>logo-nerdices-geek</title><g id="logo-completo"><g id="logo-2" data-name="logo"><path class="cls-1" d="M140.91,36.9C84.48,36.53,42.18,77.1,42,131.76c-.19,54.17,41,95.73,95.45,96.34,54,.6,99.22-43.19,99.11-96C236.43,81,192.43,37.24,140.91,36.9Zm7.43,142.38c-4.89,2.17-12.51,1.06-17.81-1.12-13.12-5.4-23.24-10.4-38.49-18.26-15.69-8.08-16.73-17.69-17.16-32-.47-15.6,10.47-18.56,20.56-23.25,3.79-1.76,8.26-2,12.1-3.73,36-15.89,35.92-15.83,63.6,10.68,12.22,11.7,24.93,22.89,40,36.69C187.25,160.27,168.12,170.51,148.34,179.28Z"/><path class="cls-2" d="M171.14,111.52C143.46,85,140.33,83.79,104.29,99.68l-.7.31c-3.32,1.45-4.75,2-8.3,3.69-5.55,2.58-11.65,4.74-16,9.17l-.3.29c-2.8,2.78-4.82,6.6-5.47,12.39,0,.38-.08.78-.11,1.18s-.06.88-.08,1.33,0,1.08,0,1.64c0,7-2,18,18.75,30.14,12.56,7.35,21.25,15.86,52.25,21.86,0,0,43-21.49,66.87-33.47C196.07,134.41,183.36,123.22,171.14,111.52Zm-33.06-9.87q10.56,11.3,21.25,22.47l-14.22,9.66q-3.17-4.78-8-11.36c-5.41-7.32-9-12.45-11-15.39Zm-10.85,66.29c-6.54-15.92-13.13-31.84-20-47.71a182.69,182.69,0,0,0,18.27,9.47c5.68,2.56,11.17,4.65,16.24,6.35l-3.37,2.28,13.9,20.46Q139.83,163.43,127.23,167.94Z"/><path class="cls-3" d="M138.09,102c14.42,15.45,29.11,30.71,43.81,46q-27.15,10.45-54.66,20.31c-6.55-15.92-13.13-31.84-20-47.71A182.78,182.78,0,0,0,125.55,130a174.85,174.85,0,0,0,22.19,8.23c-2.31-3.88-5.9-9.05-10.67-15.51-5.4-7.32-9-12.45-11-15.39Zm17.19,50.78.82,1.16c7.68-2.87,11.51-4.32,19.17-7.25-6.17-6.62-9.25-9.91-15.33-16.5l-1.06.42c3,3.42,7.1,8.56,12.29,15.48-6.32,2.69-9.5,4-15.89,6.69"/></g><text class="cls-4" transform="translate(275.63 110.89)">nerdices<tspan x="0" y="93">ge</tspan><tspan class="cls-5" x="144.43" y="93">e</tspan><tspan x="217.44" y="93">k</tspan></text></g></svg>